#!OML:ASF H:\Dans Jumps\Project 1\Capture day 1\Session 1\subject.ASF
:FULLY-SPECIFIED
:DEGREES
103
root 0.442979 17.473 -13.859 8.46286 -1.21217 -2.76626
lowerback -0.295105 -0.462512 1.47709
upperback 3.47502 -0.722739 2.17508
thorax 3.75075 -0.352374 1.38676
lowerneck -14.6522 0.644398 -2.0593
upperneck 30.0705 1.39573 0.337065
head 12.3459 0.423386 0.688465
rclavicle 1.98785e-016 -9.54166e-015
rhumerus -17.7358 -12.5219 -79.188
rradius 29.8736
rwrist 25.7843
rhand -20.3628 -26.7801
rfingers 7.12502
rthumb 5.98953 -56.6754
lclavicle 1.98785e-016 -9.54166e-015
lhumerus -18.278 -2.07141 83.7181
lradius 25.5176
lwrist 8.49177
lhand -24.3104 -3.34907
lfingers 7.12502
lthumb 2.17757 26.6196
rfemur -16.7598 -2.96727 21.3891
rtibia 23.3519
rfoot -14.7922 -2.7599
rtoes 1.7259
lfemur -16.7469 8.42858 -17.9487
ltibia 23.1319
lfoot -12.1474 6.92758
ltoes -8.86263
104
root 0.445955 17.4692 -13.8674 8.48032 -1.21026 -2.79571
lowerback -0.174341 -0.469221 1.50187
upperback 3.47794 -0.729174 2.19024
thorax 3.68546 -0.355265 1.38914
lowerneck -14.673 0.642455 -2.09325
upperneck 30.0254 1.39652 0.356266
head 12.3315 0.422806 0.701515
rclavicle 5.26779e-015 -1.03368e-014
rhumerus -17.696 -12.5082 -79.2139
rradius 29.8926
rwrist 25.7612
rhand -20.3967 -26.7805
rfingers 7.12502
rthumb 5.95685 -56.6768
lclavicle 5.26779e-015 -1.03368e-014
lhumerus -18.2639 -2.04747 83.6919
lradius 25.5337
lwrist 8.42766
lhand -24.3605 -3.42229
lfingers 7.12502
lthumb 2.12923 26.5468
rfemur -16.8831 -2.93864 21.4116
rtibia 23.4914
rfoot -14.8147 -2.78694
rtoes 1.67848
lfemur -16.914 8.46371 -17.9382
ltibia 23.3469
lfoot -12.2032 6.92503
ltoes -8.91255
105
root 0.448911 17.4648 -13.8772 8.50274 -1.21352 -2.82563
lowerback -0.0388882 -0.474551 1.52611
upperback 3.48148 -0.733259 2.20618
thorax 3.61251 -0.357049 1.39283
lowerneck -14.6803 0.641268 -2.11555
upperneck 29.9569 1.40025 0.357125
head 12.3052 0.422782 0.705748
rclavicle 1.2921e-015 1.98785e-014
rhumerus -17.657 -12.4947 -79.236
rradius 29.9118
rwrist 25.7406
rhand -20.4499 -26.7608
rfingers 7.12502
rthumb 5.90545 -56.6585
lclavicle 1.2921e-015 1.98785e-014
lhumerus -18.2528 -2.02023 83.6665
lradius 25.5643
lwrist 8.4196
lhand -24.4113 -3.49224
lfingers 7.12502
lthumb 2.08012 26.4774
rfemur -17.0307 -2.90292 21.434
rtibia 23.6559
rfoot -14.8416 -2.81394
rtoes 1.6236
lfemur -17.1068 8.50883 -17.9297
ltibia 23.5908
lfoot -12.2629 6.92009
ltoes -8.97052
106
root 0.451903 17.4599 -13.8885 8.53367 -1.22448 -2.85353
lowerback 0.112447 -0.477413 1.54819
upperback 3.48367 -0.73335 2.22117
thorax 3.52916 -0.356936 1.397
lowerneck -14.6724 0.641949 -2.12
upperneck 29.8604 1.40756 0.336619
head 12.2648 0.423978 0.699016
rclavicle -3.18055e-015 9.54166e-015
rhumerus -17.6205 -12.4778 -79.2554
rradius 29.9329
rwrist 25.7143
rhand -20.5188 -26.7312
rfingers 7.12502
rthumb 5.83897 -56.6308
lclavicle -3.18055e-015 9.54166e-015
lhumerus -18.2395 -1.99336 83.639
lradius 25.6087
lwrist 8.48764
lhand -24.4267 -3.51142
lfingers 7.12502
lthumb 2.06524 26.4583
rfemur -17.2102 -2.86195 21.4536
rtibia 23.8503
rfoot -14.875 -2.83889
rtoes 1.55743
lfemur -17.3309 8.56527 -17.9272
ltibia 23.865
lfoot -12.3257 6.91509
ltoes -9.04266
107
root 0.454872 17.4542 -13.9017 8.57384 -1.24024 -2.8787
lowerback 0.281761 -0.478638 1.56623
upperback 3.48497 -0.730484 2.23577
thorax 3.43478 -0.355508 1.40327
lowerneck -14.6601 0.643872 -2.11638
upperneck 29.7451 1.41763 0.304489
head 12.2162 0.426064 0.686749
rclavicle -4.77083e-015 1.66979e-014
rhumerus -17.5881 -12.4604 -79.2701
rradius 29.9571
rwrist 25.6857
rhand -20.5988 -26.6818
rfingers 7.12502
rthumb 5.76167 -56.5835
lclavicle -4.77083e-015 1.66979e-014
lhumerus -18.2249 -1.97561 83.6108
lradius 25.6642
lwrist 8.63207
lhand -24.4227 -3.49933
lfingers 7.12502
lthumb 2.0691 26.4704
rfemur -17.425 -2.81509 21.4701
rtibia 24.0787
rfoot -14.9154 -2.86653
rtoes 1.4842
lfemur -17.5897 8.63208 -17.9312
ltibia 24.1726
lfoot -12.3926 6.90689
ltoes -9.12959
108
root 0.457816 17.4478 -13.9167 8.62566 -1.26128 -2.90006
lowerback 0.470259 -0.477479 1.57926
upperback 3.48409 -0.723558 2.24905
thorax 3.32734 -0.352228 1.41123
lowerneck -14.6413 0.646269 -2.11222
upperneck 29.6089 1.42826 0.270803
head 12.158 0.428543 0.673723
rclavicle -9.64106e-015 7.95139e-015
rhumerus -17.5651 -12.4466 -79.2782
rradius 29.9872
rwrist 25.6644
rhand -20.6699 -26.6337
rfingers 7.12502
rthumb 5.6931 -56.5372
lclavicle -9.64106e-015 7.95139e-015
lhumerus -18.2125 -1.9674 83.5822
lradius 25.7244
lwrist 8.81352
lhand -24.3961 -3.43626
lfingers 7.12502
lthumb 2.09478 26.5332
rfemur -17.6801 -2.76093 21.4825
rtibia 24.3451
rfoot -14.9635 -2.90045
rtoes 1.39045
lfemur -17.887 8.70563 -17.9433
ltibia 24.5143
lfoot -12.4633 6.89929
ltoes -9.22444
109
root 0.460691 17.4405 -13.9339 8.69178 -1.28453 -2.92058
lowerback 0.677001 -0.474187 1.59027
upperback 3.48302 -0.713059 2.26118
thorax 3.20942 -0.347242 1.41934
lowerneck -14.6241 0.64943 -2.10421
upperneck 29.4525 1.43889 0.236355
head 12.0923 0.431623 0.659656
rclavicle 1.41137e-014 3.18055e-015
rhumerus -17.5507 -12.4381 -79.2805
rradius 30.0264
rwrist 25.6513
rhand -20.7315 -26.5792
rfingers 7.12502
rthumb 5.63363 -56.4844
lclavicle 1.41137e-014 3.18055e-015
lhumerus -18.2023 -1.96876 83.5518
lradius 25.7901
lwrist 9.00819
lhand -24.3662 -3.36069
lfingers 7.12502
lthumb 2.12365 26.6085
rfemur -17.9804 -2.69567 21.4945
rtibia 24.6506
rfoot -15.0191 -2.94682
rtoes 1.28666
lfemur -18.2282 8.78245 -17.96
ltibia 24.8922
lfoot -12.5368 6.89232
ltoes -9.32619
110
root 0.463504 17.4321 -13.9534 8.77125 -1.30793 -2.93868
lowerback 0.903759 -0.470243 1.59675
upperback 3.48324 -0.700952 2.27291
thorax 3.08167 -0.341607 1.42972
lowerneck -14.6072 0.65322 -2.10143
upperneck 29.2718 1.44948 0.208573
head 12.0172 0.435284 0.648873
rclavicle 6.16232e-015 -1.43125e-014
rhumerus -17.5462 -12.4243 -79.2761
rradius 30.075
rwrist 25.6368
rhand -20.7991 -26.5135
rfingers 7.12502
rthumb 5.56832 -56.4204
lclavicle 6.16232e-015 -1.43125e-014
lhumerus -18.2009 -1.97937 83.5202
lradius 25.8671
lwrist 9.2075
lhand -24.3515 -3.31793
lfingers 7.12502
lthumb 2.13784 26.6511
rfemur -18.325 -2.62231 21.5047
rtibia 24.9958
rfoot -15.0821 -3.00618
rtoes 1.17669
lfemur -18.6137 8.8594 -17.9827
ltibia 25.307
lfoot -12.6146 6.88851
ltoes -9.43629
111
root 0.466267 17.4226 -13.9749 8.86454 -1.33394 -2.96039
lowerback 1.14695 -0.464632 1.60379
upperback 3.48668 -0.686163 2.28572
thorax 2.94805 -0.33465 1.44101
lowerneck -14.587 0.656978 -2.1063
upperneck 29.0628 1.45873 0.190329
head 11.9303 0.439103 0.642603
rclavicle -3.57812e-015 -1.39149e-014
rhumerus -17.5499 -12.4009 -79.265
rradius 30.1302
rwrist 25.6211
rhand -20.888 -26.443
rfingers 7.12502
rthumb 5.48248 -56.3521
lclavicle -3.57812e-015 -1.39149e-014
lhumerus -18.2096 -1.99132 83.4859
lradius 25.9579
lwrist 9.39669
lhand -24.3394 -3.25801
lfingers 7.12502
lthumb 2.14959 26.7109
rfemur -18.7139 -2.5406 21.5195
rtibia 25.3799
rfoot -15.1544 -3.07542
rtoes 1.05804
lfemur -19.0425 8.93574 -18.0045
ltibia 25.7599
lfoot -12.6993 6.89071
ltoes -9.54035
112
root 0.468966 17.412 -13.9987 8.97507 -1.36585 -2.98611
lowerback 1.40814 -0.457231 1.61003
upperback 3.49131 -0.668407 2.3001
thorax 2.80563 -0.326284 1.45447
lowerneck -14.5702 0.661078 -2.11853
upperneck 28.8312 1.46763 0.180716
head 11.8355 0.443355 0.640661
rclavicle -6.06293e-015 1.39149e-014
rhumerus -17.5602 -12.3667 -79.2466
rradius 30.1868
rwrist 25.6148
rhand -21.0026 -26.3698
rfingers 7.12502
rthumb 5.37182 -56.2817
lclavicle -6.06293e-015 1.39149e-014
lhumerus -18.2291 -2.0109 83.4482
lradius 26.058
lwrist 9.58677
lhand -24.3617 -3.24842
lfingers 7.12502
lthumb 2.12807 26.7207
rfemur -19.1516 -2.45261 21.5397
rtibia 25.8031
rfoot -15.237 -3.14826
rtoes 0.942963
lfemur -19.5184 9.01665 -18.0263
ltibia 26.2501
lfoot -12.795 6.89748
ltoes -9.63492
113
root 0.471606 17.4001 -14.0246 9.10402 -1.40267 -3.0161
lowerback 1.68554 -0.448971 1.61553
upperback 3.49851 -0.649029 2.31626
thorax 2.65687 -0.317169 1.47024
lowerneck -14.5547 0.663053 -2.13339
upperneck 28.5708 1.4734 0.172434
head 11.7302 0.446464 0.639046
rclavicle -1.49089e-015 -3.97569e-015
rhumerus -17.577 -12.3146 -79.2203
rradius 30.2458
rwrist 25.6296
rhand -21.1289 -26.3043
rfingers 7.12502
rthumb 5.24992 -56.2193
lclavicle -1.49089e-015 -3.97569e-015
lhumerus -18.2571 -2.03962 83.4061
lradius 26.1693
lwrist 9.80394
lhand -24.4041 -3.24863
lfingers 7.12502
lthumb 2.08706 26.7209
rfemur -19.6404 -2.36426 21.5663
rtibia 26.2666
rfoot -15.331 -3.21978
rtoes 0.830369
lfemur -20.042 9.10221 -18.0479
ltibia 26.7779
lfoot -12.9054 6.90867
ltoes -9.71164
114
root 0.474221 17.387 -14.0527 9.25614 -1.44316 -3.04638
lowerback 1.97911 -0.441142 1.61723
upperback 3.50316 -0.629562 2.33272
thorax 2.49657 -0.308136 1.48845
lowerneck -14.5181 0.668765 -2.12112
upperneck 28.263 1.48397 0.136657
head 11.6032 0.451813 0.622831
rclavicle 9.14409e-015 -9.93923e-015
rhumerus -17.6007 -12.253 -79.1855
rradius 30.2958
rwrist 25.6839
rhand -21.2568 -26.2473
rfingers 7.12502
rthumb 5.12644 -56.1653
lclavicle 9.14409e-015 -9.93923e-015
lhumerus -18.2941 -2.08223 83.3564
lradius 26.2911
lwrist 10.0766
lhand -24.4361 -3.23071
lfingers 7.12502
lthumb 2.05622 26.7391
rfemur -20.1876 -2.2834 21.5959
rtibia 26.7742
rfoot -15.4368 -3.2867
rtoes 0.701
lfemur -20.6169 9.19493 -18.0752
ltibia 27.3411
lfoot -13.0337 6.92309
ltoes -9.77138
115
root 0.476643 17.3724 -14.0831 9.43604 -1.48756 -3.07414
lowerback 2.28282 -0.433436 1.61149
upperback 3.50801 -0.609902 2.34772
thorax 2.33096 -0.299168 1.50932
lowerneck -14.4723 0.678307 -2.08178
upperneck 27.9121 1.49925 0.0750572
head 11.459 0.459463 0.5929
rclavicle -1.68967e-015 1.27222e-014
rhumerus -17.6236 -12.1973 -79.1445
rradius 30.3329
rwrist 25.7932
rhand -21.3709 -26.194
rfingers 7.12502
rthumb 5.01625 -56.1146
lclavicle -1.68967e-015 1.27222e-014
lhumerus -18.3388 -2.14943 83.2971
lradius 26.4251
lwrist 10.4038
lhand -24.4748 -3.22024
lfingers 7.12502
lthumb 2.01885 26.75
rfemur -20.8024 -2.20814 21.6265
rtibia 27.3309
rfoot -15.5526 -3.34995
rtoes 0.565983
lfemur -21.2486 9.30098 -18.1125
ltibia 27.9375
lfoot -13.1807 6.93498
ltoes -9.81877
116
root 0.478847 17.3563 -14.1158 9.64493 -1.53397 -3.09281
lowerback 2.59453 -0.426378 1.59275
upperback 3.51256 -0.590905 2.3591
thorax 2.16079 -0.290774 1.53371
lowerneck -14.4393 0.689113 -2.05395
upperneck 27.5468 1.51585 0.0255568
head 11.3128 0.468152 0.569756
rclavicle -5.06901e-015 1.98785e-015
rhumerus -17.6491 -12.1593 -79.0948
rradius 30.353
rwrist 25.962
rhand -21.4494 -26.1484
rfingers 7.12502
rthumb 4.94044 -56.0708
lclavicle -5.06901e-015 1.98785e-015
lhumerus -18.3947 -2.24614 83.2273
lradius 26.5703
lwrist 10.7759
lhand -24.4996 -3.16715
lfingers 7.12502
lthumb 1.99487 26.8033
rfemur -21.4878 -2.14107 21.651
rtibia 27.941
rfoot -15.6793 -3.41027
rtoes 0.425424
lfemur -21.9368 9.41686 -18.1676
ltibia 28.5642
lfoot -13.3444 6.94654
ltoes -9.85832
